<?xml version="1.0" encoding="UTF-8"?>
<!DOCTYPE svg PUBLIC "-//W3C//DTD SVG 1.1//EN" "http://www.w3.org/Graphics/SVG/1.1/DTD/svg11.dtd">
<svg version="1.1" xmlns="http://www.w3.org/2000/svg" xmlns:xlink="http://www.w3.org/1999/xlink" x="0" y="0" width="100" height="100" viewBox="0, 0, 100, 100">
  <g id="Background">
    <rect x="0" y="0" width="100" height="100" fill="#000000" fill-opacity="0"/>
  </g>
  <g id="Layer_1">
    <path d="M49.762,98.499 C22.976,98.368 1.369,76.547 1.501,49.762 C1.632,22.976 23.453,1.369 50.238,1.501 C77.024,1.632 98.631,23.453 98.499,50.238 C98.368,77.024 76.547,98.631 49.762,98.499 z" fill="#9B3838"/>
    <text transform="matrix(1, 0.005, -0.005, 1, 50, 50)">
      <tspan x="-31.238" y="23" font-family=".HelveticaNeueDeskInterface-Regular" font-size="75" fill="#FFFFFF">©</tspan>
    </text>
    <path d="M-70.75,208.25 C-97.536,208.25 -119.25,186.536 -119.25,159.75 C-119.25,132.964 -97.536,111.25 -70.75,111.25 C-43.964,111.25 -22.25,132.964 -22.25,159.75 C-22.25,186.536 -43.964,208.25 -70.75,208.25 z" fill="#9B3838"/>
    <g>
      <path d="M-74.665,154.068 L-67.648,154.068 L-67.648,161.098 L-74.665,161.098 z" fill="#FFFFFF"/>
      <path d="M-63.931,144.687 L-69.054,139.546 L-74.18,144.687 L-69.054,149.796 z" fill="#FFFFFF"/>
      <path d="M-73.768,127.407 L-68.643,132.518 L-73.748,137.635 L-78.872,132.524 z" fill="#FFFFFF"/>
      <path d="M-56.952,192.093 L-48.256,145.85 L-54.795,145.85 L-62.421,185.631 L-79.231,185.631 L-86.694,145.874 L-93.244,145.874 L-84.7,192.093 z" fill="#FFFFFF"/>
    </g>
  </g>
</svg>
